<svg id="Layer_1" data-name="Layer 1" xmlns="http://www.w3.org/2000/svg" viewBox="0 0 358.71 358.83"><defs><style>.cls-1{fill:#fff;}</style></defs><path d="M1462.43,796c.11,99-80.14,179.38-179.26,179.49s-179.4-80.16-179.45-179.26,80.06-180,179.22-179.57C1386.54,617,1462.5,700.57,1462.43,796ZM1283.3,625c-94.44-.07-171.13,76.15-171.34,170.3-.21,94.73,75.78,171.58,169.76,171.69,94.72.11,171.82-76.81,172-171.58C1453.87,701.27,1377.66,625.06,1283.3,625Z" transform="translate(-1103.72 -616.62)"/><path class="cls-1" d="M1283.3,625c94.36.08,170.57,76.29,170.41,170.41-.17,94.77-77.27,171.69-172,171.58-94-.11-170-77-169.76-171.69C1112.17,701.13,1188.86,624.91,1283.3,625Zm-37,232.55c4.58-2.21,5.85-7.55,4.46-14.06A24.1,24.1,0,0,1,1250,838c.19-8.5,1.76-16.35,8.45-22.67,3.64-3.43,7.32-7.6,9-12.16,4.85-12.91,14.42-18.91,27.28-20.09,16.09-1.48,32.23-2.49,48.37-3.13,7-.28,13.41,1.74,15.92,9.78,1.64,5.23,4.26,10.16,5.78,15.41,6.63,22.88,7.42,46.33,5.7,69.87-1,13.57-4.7,26.56-12,38.26-18.21,29.05-49,29.06-68.16,12.63-1.12-1-3.3-.68-5.91-1.14a20.85,20.85,0,0,0,1.36,2.81c15.11,17.37,43.1,20.54,61.84,7,13.47-9.71,21.2-23.18,25.51-38.89,5-18.28,5.08-37,3.75-55.6-1.23-17.28-2.5-35.06-11.62-50.17-5-8.33-3.27-16.78-4.55-25-.73-4.72-1.58-8.36-5.23-11-16.88-12.09-35-20.37-56.53-19.13a224.64,224.64,0,0,0-68.54,14.94c-7.64,3-15.42,6.8-21.58,12.07-12.48,10.67-18.16,25.92-24.56,40.64-6.81,15.68-2.29,28.44,8.28,40.32,1.25,1.41,1.8,3.58,2.3,5.5,2,7.66,3.71,15.39,5.76,23,1.19,4.47,3.32,8.73,4.14,13.25,2.42,13.44,20,26.07,33.3,22.76,4.59-1.14,7-.12,9.41,3.19a14.72,14.72,0,0,0,3.24,3.11c5.41,3.93,10.9,7.77,16.32,11.61,3.43-4.59.88-6.32-1.65-7.58-11.29-5.61-18.58-14.93-24.11-25.83-1.36-2.69-2.73-3.54-5.8-2.8-5.76,1.38-9.76-.39-12.72-5.4a23.59,23.59,0,0,1-1.56-22.06c1.88-4.48,5.37-7.78,10.22-7.58C1235.81,854.19,1240.2,856,1246.25,857.53Zm89.48,16.62c14.53.17,23.15-9.73,23.46-26.92.24-13.84-9.86-25-23.07-24.9-17.13.11-26.28,9.81-27.16,26.68C1308.18,863.79,1319.48,874,1335.73,874.15Zm-22.89,7.15c-1.54,6.37-3,11.65-4,17a7.71,7.71,0,0,0,1.07,4.93c.4.68,3,1,3.47.49a10.78,10.78,0,0,0,2.36-5c.31-2-.2-4-.39-6.65a44.11,44.11,0,0,0,30.05,2.86c2.92-.71,5.27-1.33,7.13,1.93.43.77,2.54.57,3.88.81.2-1.22.95-2.72.51-3.62-2.4-4.88-5.1-9.61-8.08-15.09-.19,3.23-.35,5.79-.5,8.24-11.63,4.27-17,5-26.51,3.74-3.63-.49-7.51-.58-7-6C1315,884,1313.87,883,1312.84,881.3Zm-63.8-3.68c1-3.56.62-4.46-5.13-8.75-5.45-4.06-11.2-7-19.47-3.36Z" transform="translate(-1103.72 -616.62)"/><path d="M1246.25,857.53c-6-1.51-10.44-3.34-14.89-3.53-4.85-.2-8.34,3.1-10.22,7.58a23.59,23.59,0,0,0,1.56,22.06c3,5,7,6.78,12.72,5.4,3.07-.74,4.44.11,5.8,2.8,5.53,10.9,12.82,20.22,24.11,25.83,2.53,1.26,5.08,3,1.65,7.58-5.42-3.84-10.91-7.68-16.32-11.61a14.72,14.72,0,0,1-3.24-3.11c-2.43-3.31-4.82-4.33-9.41-3.19-13.31,3.31-30.88-9.32-33.3-22.76-.82-4.52-3-8.78-4.14-13.25-2-7.64-3.77-15.37-5.76-23-.5-1.92-1-4.09-2.3-5.5-10.57-11.88-15.09-24.64-8.28-40.32,6.4-14.72,12.08-30,24.56-40.64,6.16-5.27,13.94-9.12,21.58-12.07a224.64,224.64,0,0,1,68.54-14.94c21.48-1.24,39.65,7,56.53,19.13,3.65,2.61,4.5,6.25,5.23,11,1.28,8.26-.48,16.71,4.55,25,9.12,15.11,10.39,32.89,11.62,50.17,1.33,18.64,1.26,37.32-3.75,55.6-4.31,15.71-12,29.18-25.51,38.89-18.74,13.51-46.73,10.34-61.84-7a20.85,20.85,0,0,1-1.36-2.81c2.61.46,4.79.18,5.91,1.14,19.14,16.43,50,16.42,68.16-12.63,7.33-11.7,11-24.69,12-38.26,1.72-23.54.93-47-5.7-69.87-1.52-5.25-4.14-10.18-5.78-15.41-2.51-8-8.89-10.06-15.92-9.78-16.14.64-32.28,1.65-48.37,3.13-12.86,1.18-22.43,7.18-27.28,20.09-1.71,4.56-5.39,8.73-9,12.16-6.69,6.32-8.26,14.17-8.45,22.67a24.1,24.1,0,0,0,.76,5.44C1252.1,850,1250.83,855.32,1246.25,857.53Zm-7.19,40.26c-1.9-1.07-2.82-2-3.76-2-11.38-.38-19.94-8.31-22.08-20.61-2.08-12,3.21-22.86,13.4-26.64,2.63-1,3-2.31,3.23-4.68,1.48-18.49,7-35.8,14.82-52.58,8.45-18.2,22.34-29.4,41.55-34.43,19.9-5.22,39.91-8.12,60.34-2.81-13.24-7.41-27-13-42.45-12.76-27.55.44-53.6,7.72-79.08,17.42a37.35,37.35,0,0,0-19.46,16.61,271.58,271.58,0,0,0-16.66,34.49c-3.53,9.15-.8,18.1,6.06,26.17,1.73-8.13,3.28-15.45,4.83-22.77a115.12,115.12,0,0,1,1,21.38,63.8,63.8,0,0,0,8.33,35.47,40.83,40.83,0,0,1,4,11.71C1215.28,892.42,1226.54,900.08,1239.06,897.79Z" transform="translate(-1103.72 -616.62)"/><path d="M1335.73,874.15c-16.25-.19-27.55-10.36-26.77-25.14.88-16.87,10-26.57,27.16-26.68,13.21-.09,23.31,11.06,23.07,24.9C1358.88,864.42,1350.26,874.32,1335.73,874.15Zm2-6.73c4.43.15,10.11-1.42,12.24-7.51,1.85-5.33,3.2-11.32,2.78-16.87-.77-10-11.07-16.31-20.91-13.77-4.17,1.08-8.34,2.2-12.47,3.45-.63.19-1.09,1.17-1.49,1.86C1308.6,850.45,1317.76,867,1337.7,867.42Z" transform="translate(-1103.72 -616.62)"/><path d="M1312.84,881.3c1,1.74,2.11,2.73,2,3.6-.56,5.46,3.32,5.55,7,6,9.47,1.27,14.88.53,26.51-3.74.15-2.45.31-5,.5-8.24,3,5.48,5.68,10.21,8.08,15.09.44.9-.31,2.4-.51,3.62-1.34-.24-3.45,0-3.88-.81-1.86-3.26-4.21-2.64-7.13-1.93a44.11,44.11,0,0,1-30.05-2.86c.19,2.61.7,4.7.39,6.65a10.78,10.78,0,0,1-2.36,5c-.44.52-3.07.19-3.47-.49a7.71,7.71,0,0,1-1.07-4.93C1309.86,893,1311.3,887.67,1312.84,881.3Z" transform="translate(-1103.72 -616.62)"/><path d="M1249,877.62l-24.6-12.11c8.27-3.6,14-.7,19.47,3.36C1249.66,873.16,1250.07,874.06,1249,877.62Z" transform="translate(-1103.72 -616.62)"/><path class="cls-1" d="M1239.06,897.79c-12.52,2.29-23.78-5.37-26-16.07a40.83,40.83,0,0,0-4-11.71,63.8,63.8,0,0,1-8.33-35.47,115.12,115.12,0,0,0-1-21.38c-1.55,7.32-3.1,14.64-4.83,22.77-6.86-8.07-9.59-17-6.06-26.17a271.58,271.58,0,0,1,16.66-34.49A37.35,37.35,0,0,1,1225,758.66c25.48-9.7,51.53-17,79.08-17.42,15.5-.25,29.21,5.35,42.45,12.76-20.43-5.31-40.44-2.41-60.34,2.81-19.21,5-33.1,16.23-41.55,34.43-7.8,16.78-13.34,34.09-14.82,52.58-.19,2.37-.6,3.71-3.23,4.68-10.19,3.78-15.48,14.65-13.4,26.64,2.14,12.3,10.7,20.23,22.08,20.61C1236.24,895.78,1237.16,896.72,1239.06,897.79ZM1210,800.6c5,3.14,9.06,5.76,13.23,8.17a2.64,2.64,0,0,0,2.5-.76,4.24,4.24,0,0,0,.21-3.17C1224.27,800.55,1216.37,797.91,1210,800.6Zm13.22-19.4-1,1.92c4.34,2.92,8.58,6,13.09,8.63,1,.59,2.94-.4,4.44-.66-.65-1.37-1-3.47-2-4C1233,784.9,1228.06,783.13,1223.21,781.2Zm12.13-13.76c5.06,2.58,9.05,7.65,15.57,6.67C1247.18,768.59,1241.34,767.78,1235.34,767.44Zm19.13-13.37-.82,2c2.62,1.65,5.17,3.44,7.91,4.86.7.37,2-.41,3-.67-.4-1-.55-2.51-1.26-2.84C1260.48,756.09,1257.44,755.15,1254.47,754.07Zm18.78-6.37-1,2.13c2.57,1.23,5.14,2.47,7.76,3.6,0,0,.64-1.22,1-1.87Z" transform="translate(-1103.72 -616.62)"/><path class="cls-1" d="M1337.7,867.42c-19.94-.46-29.1-17-19.85-32.84.4-.69.86-1.67,1.49-1.86,4.13-1.25,8.3-2.37,12.47-3.45,9.84-2.54,20.14,3.73,20.91,13.77.42,5.55-.93,11.54-2.78,16.87C1347.81,866,1342.13,867.57,1337.7,867.42Zm2.41-18.91c0-3.45-.54-7-4.64-7s-4.83,3.42-4.52,6.91c.15,1.65.08,3.52.87,4.83s2.5,2.81,3.92,2.94c1.09.09,2.76-1.58,3.45-2.85S1339.84,850.14,1340.11,848.51Z" transform="translate(-1103.72 -616.62)"/><path d="M1210,800.6c6.38-2.69,14.28-.05,15.94,4.24a4.24,4.24,0,0,1-.21,3.17,2.64,2.64,0,0,1-2.5.76C1219.05,806.36,1215,803.74,1210,800.6Z" transform="translate(-1103.72 -616.62)"/><path d="M1223.21,781.2c4.85,1.93,9.79,3.7,14.51,5.92,1.06.5,1.36,2.6,2,4-1.5.26-3.43,1.25-4.44.66-4.51-2.63-8.75-5.71-13.09-8.63Z" transform="translate(-1103.72 -616.62)"/><path d="M1235.34,767.44c6,.34,11.84,1.15,15.57,6.67C1244.39,775.09,1240.4,770,1235.34,767.44Z" transform="translate(-1103.72 -616.62)"/><path d="M1254.47,754.07c3,1.08,6,2,8.87,3.33.71.33.86,1.86,1.26,2.84-1,.26-2.34,1-3,.67-2.74-1.42-5.29-3.21-7.91-4.86Z" transform="translate(-1103.72 -616.62)"/><path d="M1273.25,747.7l7.7,3.86c-.35.65-.94,1.89-1,1.87-2.62-1.13-5.19-2.37-7.76-3.6Z" transform="translate(-1103.72 -616.62)"/><path d="M1340.11,848.51c-.27,1.63-.17,3.46-.92,4.83s-2.36,2.94-3.45,2.85c-1.42-.13-3.11-1.59-3.92-2.94s-.72-3.18-.87-4.83c-.31-3.49.5-6.91,4.52-6.91S1340.13,845.06,1340.11,848.51Z" transform="translate(-1103.72 -616.62)"/></svg>