<svg id="Layer_1" data-name="Layer 1" xmlns="http://www.w3.org/2000/svg" viewBox="0 0 199.75 218.58"><defs><style>.cls-1{fill:#fff;}</style></defs><path d="M1228.57,865.19c-1.46,7-.77,13.22,3,18.91,2.94,4.47,7.15,6.57,12.47,4.95,3.09-.94,4.46.18,5.8,2.81,5.46,10.74,12.55,20,23.67,25.57,2.35,1.18,5.46,2.62,2.67,7a42.74,42.74,0,0,1-5.49-2.51c-2.82-1.76-5.51-3.74-8.17-5.74-6.23-4.68-13.69-7.1-21-8.9-6.69-1.64-13.66-3.88-19.21-7.73-3.9-2.71-6.12-8.34-8.2-13.06-2.51-5.73-4.15-11.84-6-17.83-1.44-4.59-3.7-9.23-3.75-13.86-.07-7.12-2.68-12.47-7.12-17.7-7.85-9.27-9.71-19.81-5.17-31.28,1.22-3.1,2.41-6.21,3.52-9.35,9.5-26.76,27.31-44,55.43-50.95,20.41-5.08,40.64-10.43,61.83-10.5,19.79-.07,36.34,8.48,51.83,19.67,3.23,2.32,3.82,5.79,4.57,9.83,1.54,8.29-.91,16.81,4.32,25.1,8.5,13.49,9.93,29.58,11.27,45.16,1,12.23.45,24.61.65,36.92a20.14,20.14,0,0,0,.72,5.36c7.16,24.12,2.21,45.88-14.84,63.88-8.52,9-19.89,13.88-33.44,12.4-27.57-3-49.44-20.11-55.15-44.79-1.29-5.56-1.14-11.53-1-17.3.07-2.62-.32-4-2.76-4.89-7.86-2.89-15.8-5.63-23.5-8.92-8.06-3.44-15.86-7.46-23.78-11.19A26.75,26.75,0,0,0,1228.57,865.19Zm151.57-.91c-.47-10.43-.62-19.9-1.39-29.32a141.62,141.62,0,0,0-11.12-45.37c-3.24-7.45-8.81-9.88-15.62-9.6-16.63.66-33.28,1.65-49.84,3.29-12.28,1.2-21.29,7.35-26.05,19.54-1.83,4.71-6.14,8.42-9.1,12.74-2.49,3.63-5.79,7.23-6.73,11.3-1.3,5.66-.75,11.76-.94,17.67-.08,2.3.7,4.94-.17,6.85a18.79,18.79,0,0,1-5.56,6.61c-.57.44-3.16-1.45-4.66-2.5-4-2.79-9.69-2.55-14.67,1.06l52,21.58c6.33-11,17.27-14.52,27.34-20.79-2-1.91-3.42-4.3-5.41-5-5.72-1.92-5.74,5.39-11,7.4,0-3-.56-5.4.1-7.42,2.54-7.79,12.21-9.6,18.31-3.53,1.35,1.34,2.29,3.1,4.12,5.64a60.59,60.59,0,0,1,4-5.24c10.22-10.24,15.35-11.08,28.45-4.87a5.49,5.49,0,0,0,3.17.58c8.77-1.71,13.1,1.31,14.59,10.1a6.19,6.19,0,0,0,1.88,3.56C1374,860.45,1376.63,861.94,1380.14,864.28Zm-92.36,24.51a39.59,39.59,0,0,0,4.75,30.44c7.41,12.53,18.36,20.93,31.92,25.89,22.74,8.29,45.25-1,55.43-22.93,6.52-14,7-28.61,3-43.39-1.69-6.24-4.55-12.51-10.41-15.29-8.25-3.91-15-9.49-22.12-15-8.78-6.77-15.64-5-23.12,3.06-4.42,4.78-10,8.59-15.34,12.39-4.18,3-9.07,4.94-13.22,8-2.78,2-4.82,5.08-7,7.5,2.19,1.42,4.71,2.36,4.67,3.17-.14,2.89-1.14,5.75-1.86,8.79Zm-65.14-34.38,9.74-4.82a7,7,0,0,1,1.82-.81c3.18-.5,4-2.45,4.24-5.49a144.75,144.75,0,0,1,18.94-59.47c6.24-10.81,14.82-19.19,26.66-23a272.9,272.9,0,0,1,36.25-8.73,75.56,75.56,0,0,1,33.83,1.66,80.73,80.73,0,0,0-51.51-12.26c-21.56,2-42.18,7.81-62.64,14.43-12.43,4-22.19,11.71-28.45,23a249.62,249.62,0,0,0-13.89,29.8c-3.77,9.66-.61,21,6,26.34q2.37-11,4.74-22.11a65.25,65.25,0,0,1,1,16.71c-.92,13.22.54,25.83,6.83,37.81a69.57,69.57,0,0,1,5.67,15.82c2.26,9.26,14.87,17.06,25.28,14.19-5.69-2.17-10.9-3.56-15.51-6.06-5.37-2.92-8.12-8.24-9.44-14.13a28.32,28.32,0,0,1,1.29-17.59c8.16,3,16.07,5.51,23.74,8.65,13.87,5.67,27.59,11.68,41.37,17.55,3.41,1.45,3.41,1.44,4.73-1.93Z" transform="translate(-1189.51 -734.97)"/><path class="cls-1" d="M1380.14,864.28c-3.51-2.34-6.1-3.83-8.38-5.69a6.19,6.19,0,0,1-1.88-3.56c-1.49-8.79-5.82-11.81-14.59-10.1a5.49,5.49,0,0,1-3.17-.58c-13.1-6.21-18.23-5.37-28.45,4.87a60.59,60.59,0,0,0-4,5.24c-1.83-2.54-2.77-4.3-4.12-5.64-6.1-6.07-15.77-4.26-18.31,3.53-.66,2-.1,4.43-.1,7.42,5.3-2,5.32-9.32,11-7.4,2,.67,3.41,3.06,5.41,5-10.07,6.27-21,9.74-27.34,20.79l-52-21.58c5-3.61,10.65-3.85,14.67-1.06,1.5,1,4.09,2.94,4.66,2.5a18.79,18.79,0,0,0,5.56-6.61c.87-1.91.09-4.55.17-6.85.19-5.91-.36-12,.94-17.67.94-4.07,4.24-7.67,6.73-11.3,3-4.32,7.27-8,9.1-12.74,4.76-12.19,13.77-18.34,26.05-19.54,16.56-1.64,33.21-2.63,49.84-3.29,6.81-.28,12.38,2.15,15.62,9.6A141.62,141.62,0,0,1,1378.75,835C1379.52,844.38,1379.67,853.85,1380.14,864.28ZM1348,829.85a4.84,4.84,0,0,0,1.37.3c8.33-.68,14.77,1.75,17.63,10.41.34,1,1.26,2.37,2.14,2.58,1.76.41,4,.74,5.42-.07,1.1-.63,2.14-3.53,1.58-4.52-3.12-5.62-6.16-11.48-13-13.63C1356.7,823,1351.13,824.65,1348,829.85Zm-58.42,19.3c1-1.17,1.91-1.83,2.27-2.72,3.63-9,8.46-15.77,20-13.51a3.2,3.2,0,0,0,2.52-5.69c-2.24-1.81-6-3.09-8.77-2.6C1295.52,826.37,1288.92,836.66,1289.53,849.15Z" transform="translate(-1189.51 -734.97)"/><path class="cls-1" d="M1287.78,888.79l6.71,2.63c.72-3,1.72-5.9,1.86-8.79,0-.81-2.48-1.75-4.67-3.17,2.21-2.42,4.25-5.48,7-7.5,4.15-3,9-5,13.22-8,5.36-3.8,10.92-7.61,15.34-12.39,7.48-8.09,14.34-9.83,23.12-3.06,7.09,5.47,13.87,11.05,22.12,15,5.86,2.78,8.72,9,10.41,15.29,4,14.78,3.48,29.35-3,43.39-10.18,21.9-32.69,31.22-55.43,22.93-13.56-5-24.51-13.36-31.92-25.89A39.59,39.59,0,0,1,1287.78,888.79Zm6.51,12-.2,1.45c8.9,1.8,17.76,3.89,26.72,5.34a143.7,143.7,0,0,0,52.18-.73,39.75,39.75,0,0,0,5.56-2c-.16-.77-.33-1.54-.5-2.31C1349.89,910.91,1322.14,904,1294.29,900.77ZM1345.15,850l.72-1.41c-1.7-.55-3.58-1.86-5.08-1.51a20.55,20.55,0,0,0-14.47,11.78c3.1-1.78,5.64-4.42,8.74-6S1341.76,850.91,1345.15,850Zm-2.77,41.73-1-2.47-14.44,7.66.62,1.43ZM1339,921.28l-8.82-8.18C1333.24,921.43,1336.15,924,1339,921.28Zm34.19-24.11-7.53-7.92C1366.46,895.51,1368.26,897.4,1373.15,897.17Z" transform="translate(-1189.51 -734.97)"/><path class="cls-1" d="M1222.64,854.41l70.76,29.65c-1.32,3.37-1.32,3.38-4.73,1.93-13.78-5.87-27.5-11.88-41.37-17.55-7.67-3.14-15.58-5.7-23.74-8.65a28.32,28.32,0,0,0-1.29,17.59c1.32,5.89,4.07,11.21,9.44,14.13,4.61,2.5,9.82,3.89,15.51,6.06-10.41,2.87-23-4.93-25.28-14.19a69.57,69.57,0,0,0-5.67-15.82c-6.29-12-7.75-24.59-6.83-37.81a65.25,65.25,0,0,0-1-16.71q-2.37,11.09-4.74,22.11c-6.66-5.39-9.82-16.68-6-26.34a249.62,249.62,0,0,1,13.89-29.8c6.26-11.33,16-19,28.45-23,20.46-6.62,41.08-12.48,62.64-14.43a80.73,80.73,0,0,1,51.51,12.26,75.56,75.56,0,0,0-33.83-1.66,272.9,272.9,0,0,0-36.25,8.73c-11.84,3.76-20.42,12.14-26.66,23a144.75,144.75,0,0,0-18.94,59.47c-.28,3-1.06,5-4.24,5.49a7,7,0,0,0-1.82.81Zm-4-53.76c4.82,3.05,8.72,5.63,12.77,8a3.1,3.1,0,0,0,2.95-.67,3.71,3.71,0,0,0,.1-3.12C1232.6,800.43,1224.87,797.89,1218.64,800.65Zm13-19.56-1,1.93c4.42,3,8.75,6.09,13.33,8.78,1,.56,2.88-.49,4.36-.8-.42-1.16-.51-3-1.3-3.35C1242,785.28,1236.76,783.24,1231.6,781.09Zm12.34-13.7c5,2.68,9,7.61,16.7,7.57C1256,768.16,1249.84,768.08,1243.94,767.39ZM1263,754l-.9,2c2.68,1.69,5.3,3.5,8.1,5,.66.35,1.94-.48,2.93-.77-.41-1-.57-2.49-1.27-2.81C1269,756.05,1266,755.11,1263,754Zm17.33-6.65c4.22,6.11,6.2,6.91,10.18,4Z" transform="translate(-1189.51 -734.97)"/><path d="M1348,829.85c3.18-5.2,8.75-6.9,15.09-4.93,6.89,2.15,9.93,8,13,13.63.56,1-.48,3.89-1.58,4.52-1.38.81-3.66.48-5.42.07-.88-.21-1.8-1.56-2.14-2.58-2.86-8.66-9.3-11.09-17.63-10.41A4.84,4.84,0,0,1,1348,829.85Z" transform="translate(-1189.51 -734.97)"/><path d="M1289.53,849.15c-.61-12.49,6-22.78,16-24.52,2.75-.49,6.53.79,8.77,2.6a3.2,3.2,0,0,1-2.52,5.69c-11.5-2.26-16.33,4.52-20,13.51C1291.44,847.32,1290.53,848,1289.53,849.15Z" transform="translate(-1189.51 -734.97)"/><path d="M1294.29,900.77c27.85,3.23,55.6,10.14,83.76,1.75.17.77.34,1.54.5,2.31a39.75,39.75,0,0,1-5.56,2,143.7,143.7,0,0,1-52.18.73c-9-1.45-17.82-3.54-26.72-5.34Z" transform="translate(-1189.51 -734.97)"/><path d="M1345.15,850c-3.39.92-7,1.35-10.09,2.89s-5.64,4.19-8.74,6a20.55,20.55,0,0,1,14.47-11.78c1.5-.35,3.38,1,5.08,1.51Z" transform="translate(-1189.51 -734.97)"/><path d="M1342.38,891.72l-14.83,6.62-.62-1.43,14.44-7.66Z" transform="translate(-1189.51 -734.97)"/><path d="M1339,921.28c-2.81,2.75-5.72.15-8.82-8.18Z" transform="translate(-1189.51 -734.97)"/><path d="M1373.15,897.17c-4.89.23-6.69-1.66-7.53-7.92Z" transform="translate(-1189.51 -734.97)"/><path d="M1218.64,800.65c6.23-2.76,14-.22,15.82,4.16a3.71,3.71,0,0,1-.1,3.12,3.1,3.1,0,0,1-2.95.67C1227.36,806.28,1223.46,803.7,1218.64,800.65Z" transform="translate(-1189.51 -734.97)"/><path d="M1231.6,781.09c5.16,2.15,10.37,4.19,15.43,6.56.79.36.88,2.19,1.3,3.35-1.48.31-3.39,1.36-4.36.8-4.58-2.69-8.91-5.81-13.33-8.78Z" transform="translate(-1189.51 -734.97)"/><path d="M1243.94,767.39c5.9.69,12.07.77,16.7,7.57C1252.93,775,1248.91,770.07,1243.94,767.39Z" transform="translate(-1189.51 -734.97)"/><path d="M1263,754c3,1.09,6,2,8.86,3.35.7.32.86,1.84,1.27,2.81-1,.29-2.27,1.12-2.93.77-2.8-1.46-5.42-3.27-8.1-5Z" transform="translate(-1189.51 -734.97)"/><path d="M1280.36,747.37l10.18,4C1286.56,754.28,1284.58,753.48,1280.36,747.37Z" transform="translate(-1189.51 -734.97)"/></svg>