<svg id="Layer_1" data-name="Layer 1" xmlns="http://www.w3.org/2000/svg" viewBox="0 0 196.93 208.44"><defs><style>.cls-1{fill:#fff;}</style></defs><path d="M1379.75,854.7l-18.41,13.41c-3.18-7.93-6.73-15.41-9-23.26-.66-2.28,1.62-6.76,3.85-8.11,1.83-1.11,5.65.69,8.42,1.68,1.25.45,2.08,2.06,2.82,2.83l11.11-3.22c.83-9.41-3.51-13.68-14.78-13.71-3.57,0-6.79-.11-6.28-4.67.49-4.33,4.09-4.49,7.31-3.8,3.87.84,7.61,2.26,11.83,3.55-2.16-12.85-5.45-25.41-13.15-36-1.94-2.67-7.86-3.57-11.88-3.42q-24.21.87-48.37,3.06c-12.86,1.18-22.41,7.23-27.28,20.1-1.73,4.56-5.4,8.71-9,12.17-6.93,6.6-8.55,14.76-8.39,23.64a67.17,67.17,0,0,0,1.11,7.91c.68,4.89-1.53,8.42-5.56,10.77-.8.48-2.73-.06-3.62-.78-7.4-6-17.4-3.71-21,5.13a24.09,24.09,0,0,0,.75,19.9c2.93,6.26,7.28,8.14,14.24,7.24a6,6,0,0,1,4.87,2.34c5.92,10.89,13.1,20.41,24.5,26.23,4,2,3.83,2.44,2.23,7.15a72,72,0,0,1-24.22-18.71c-12,4.26-21.87-.9-31.2-7.26-4.94-3.37-6.32-9.12-7.57-14.76a52,52,0,0,0-3.71-11.81,61.38,61.38,0,0,1-6.23-24,10.75,10.75,0,0,0-2.54-6c-10.54-12-15-25.05-7.61-40.41,1.43-3,2.59-6.14,3.79-9.24,9.51-24.53,26.5-40.29,52.36-47,20.2-5.25,40.27-10.46,61.28-11,20.58-.56,37.8,8,53.95,19.46a10.5,10.5,0,0,1,4.8,10.27c-.51,5.18-.12,10.44,0,15.67a4.83,4.83,0,0,0,.93,2.26c10.08,15.46,12.91,33.1,14.78,50.87,2.16,20.46,2.27,41-2.81,61.11-4,16-11.64,29.72-25.09,39.77-18.82,14.06-46.6,11.38-62.31-6a33.55,33.55,0,0,1-2-3.31c3,.54,5.1.28,6.2,1.23,19,16.34,50.25,16.66,68.39-13.11C1377.85,895.38,1380.11,876,1379.75,854.7Zm-171.47-41.65,1.19.19c0,5.44.32,10.91-.07,16.32-1,13.4.52,26.19,7,38.28a62.53,62.53,0,0,1,5.39,14.89c2.11,8.72,13.65,17.19,22.58,15.86.69-.11,1.25-1.06,1.88-1.62-.69-.48-1.44-1.43-2-1.35-5.45.76-9.69-1.78-13.73-4.84-13.64-10.32-11.84-37.82,5.19-42.79,1.2-.36,2.36-2.83,2.52-4.43a158.65,158.65,0,0,1,16-54.34c7.93-16.08,20.33-26.48,37.41-31.51,20.53-6.05,41.25-9,62.92-3.87-12.42-7.41-25.36-12.76-42.23-12.67-25.54.12-49.64,7.31-73.58,15.19-11.18,3.67-20.28,10.58-26,20.77a244.43,244.43,0,0,0-15.19,32c-3.64,9.47-1,18.53,6,26.77Z" transform="translate(-1189.32 -734.63)"/><path d="M1344.39,912.4c-10-.08-18.46-1.39-25.5-6.63a28.83,28.83,0,0,1-8.2-9.7c-2.6-5.08.43-8.91,6.16-8.56,3.82.23,7.6,1.26,11.4,1.29,9.28.09,18.57-.21,27.86-.31a52.77,52.77,0,0,1,8,.18c7.22,1,9.57,6.35,5.23,12.22C1362.81,909.69,1353.65,912.81,1344.39,912.4Zm10.19-5.55c-8.78-5.73-18.82-5.7-25.27,0Z" transform="translate(-1189.32 -734.63)"/><path d="M1317.77,867.8c-6.29-4.55-12-8.44-17.47-12.72-4.87-3.82-6.06-9.31-3.37-13.13s7.21-4.19,13-1.16c.55.29,1.08.6,1.85,1,1.37-1.47,2.37-3.4,3.89-4,2.43-1,5.74-2.1,7.69-1.15a8.51,8.51,0,0,1,3.83,6.71c-.27,4-1.92,8-3.44,11.8C1322.05,859.42,1319.85,863.45,1317.77,867.8Z" transform="translate(-1189.32 -734.63)"/><path d="M1293.46,834.78c-.51-8.88,9.87-20.37,18.34-20.12a9.78,9.78,0,0,1,5.38,2c2.61,2.07,1.91,5.8-1.26,5.93-9.18.38-15.41,5.42-21.08,11.76C1294.57,834.68,1293.94,834.66,1293.46,834.78Z" transform="translate(-1189.32 -734.63)"/><path d="M1343.48,856.91c2.12.7,4.5,1,6.29,2.17,3.88,2.58,5.06,6.58,3.93,11-1.17,4.57-4.16,8.32-9,7.9-4.4-.38-8.72-2.53-12.88-4.34-.75-.32-.57-2.77-.82-4.23,1.44-.18,3.07-.86,4.29-.43,2,.71,3.61,2.83,5.57,3.12,2.31.34,5.88.16,6.94-1.27s.54-5-.39-7.13c-.83-1.93-3.14-3.22-4.79-4.79C1342.91,858.23,1343.2,857.57,1343.48,856.91Z" transform="translate(-1189.32 -734.63)"/><path d="M1258,877.36c-8.18-3.62-15.8-7-23.39-10.42-.29-.13-.3-.88-.62-1.93,6.89-3,12.74-.67,17.9,3.5C1254.67,870.79,1259.6,872.35,1258,877.36Z" transform="translate(-1189.32 -734.63)"/><path class="cls-1" d="M1208.28,813.05l-4.78,22.8c-7-8.24-9.62-17.3-6-26.77a244.43,244.43,0,0,1,15.19-32c5.73-10.19,14.83-17.1,26-20.77,23.94-7.88,48-15.07,73.58-15.19,16.87-.09,29.81,5.26,42.23,12.67-21.67-5.16-42.39-2.18-62.92,3.87-17.08,5-29.48,15.43-37.41,31.51a158.65,158.65,0,0,0-16,54.34c-.16,1.6-1.32,4.07-2.52,4.43-17,5-18.83,32.47-5.19,42.79,4,3.06,8.28,5.6,13.73,4.84.61-.08,1.36.87,2,1.35-.63.56-1.19,1.51-1.88,1.62-8.93,1.33-20.47-7.14-22.58-15.86a62.53,62.53,0,0,0-5.39-14.89c-6.48-12.09-8-24.88-7-38.28.39-5.41.07-10.88.07-16.32Zm10.48-12.34c4.76,2.95,8.77,6,13.24,8,2.27,1,3.5-1.22,2.62-3.65C1233,800.5,1224.61,797.68,1218.76,800.71Zm12.73-19.61-.81,1.93c4.33,2.92,8.56,6,13,8.63,1,.6,3-.32,4.46-.54-.59-1.37-.82-3.51-1.83-4C1241.52,784.87,1236.47,783.07,1231.49,781.1Zm12.35-13.71c5.08,2.6,9.17,7.48,15.54,6.74C1255.65,768.46,1249.8,767.69,1243.84,767.39ZM1263,754l-.75,2.12c2.6,1.63,5.14,3.38,7.86,4.78.71.36,2-.39,3-.63-.25-.88-.24-2.31-.77-2.55C1269.27,756.27,1266.1,755.16,1263,754Zm18.71-6.2-.69,1.61c2.53,1.71,4.28,5.2,8.24,3.64l.76-1.77Z" transform="translate(-1189.32 -734.63)"/><path class="cls-1" d="M1354.58,906.85h-25.27C1335.76,901.15,1345.8,901.12,1354.58,906.85Z" transform="translate(-1189.32 -734.63)"/><path d="M1218.76,800.71c5.85-3,14.22-.21,15.86,4.32.88,2.43-.35,4.66-2.62,3.65C1227.53,806.68,1223.52,803.66,1218.76,800.71Z" transform="translate(-1189.32 -734.63)"/><path d="M1231.49,781.1c5,2,10,3.77,14.87,6,1,.48,1.24,2.62,1.83,4-1.51.22-3.43,1.14-4.46.54-4.49-2.64-8.72-5.71-13-8.63Z" transform="translate(-1189.32 -734.63)"/><path d="M1243.84,767.39c6,.3,11.81,1.07,15.54,6.74C1253,774.87,1248.92,770,1243.84,767.39Z" transform="translate(-1189.32 -734.63)"/><path d="M1263,754c3.13,1.21,6.3,2.32,9.35,3.72.53.24.52,1.67.77,2.55-1,.24-2.3,1-3,.63-2.72-1.4-5.26-3.15-7.86-4.78Z" transform="translate(-1189.32 -734.63)"/><path d="M1281.68,747.75l8.31,3.48-.76,1.77c-4,1.56-5.71-1.93-8.24-3.64Z" transform="translate(-1189.32 -734.63)"/></svg>