<svg id="Layer_1" data-name="Layer 1" xmlns="http://www.w3.org/2000/svg" viewBox="0 0 259.39 360.1"><defs><style>.cls-1{fill:#fff;}</style></defs><path d="M1331,703.52c15.83,7.84,21.73,22.94,27.88,37.72,1.88,4.51,2.54,9.53,3.86,14.29a11.16,11.16,0,0,0,1.59,3.06c9.76,14.61,15.17,31.06,20.11,47.68.67,2.23.1,4.83.1,7.85a31.28,31.28,0,0,1,3.84,2.81c5.13,5,11,9.41,15,15.14,11.08,15.6,8.73,31.71-6.07,43.82A132.76,132.76,0,0,1,1376.82,890c-14.76,8-30,15.14-44.93,22.83a121.47,121.47,0,0,0-14.42,8.65c-2.62,1.84-4.23,1.06-5.19-1.1-1.94-4.39-3.54-8.94-5-13.5a69.35,69.35,0,0,1-1.63-7.47l-8.29,1c0,3.69-3.67,7.64,2.53,10.39l-4.41,3,4.66,1.85.17,1.19-5.16,1.81c-.12.85-.29,2-.44,3.11-1.48,11.29-1.48,11.29,8.25,16.83,6.77,3.86,8.18,7.82,5.22,14.7a7.17,7.17,0,0,0-.65,1.34c-1.47,8.36-3,9.79-11.24,8.39-12.23-2.09-23-7.72-32.89-15a14.16,14.16,0,0,1-5-7.27c-3.29-12.7-6.1-25.53-9-38.33a18.27,18.27,0,0,1-.18-4c-.09-10.74.7-12,10.11-15.18l-34.55-3.45c.63,11.21,1.31,23.64,2.07,36.07a12.66,12.66,0,0,0,1.07,3.79q8.13,20.16,16.37,40.28a21.6,21.6,0,0,0,2.53,3.61c3.94,5.72,1.81,12.19-4.94,13.51a103.71,103.71,0,0,1-42.22-.25c-7.95-1.73-11.28-9-8.45-16.7a9.35,9.35,0,0,0,.78-3.31c-.16-6.31,2.06-11.68,5.86-16.61,4.3-5.58,6.56-11.7,3.07-18.55a5.38,5.38,0,0,0-3.53-2.56,204.5,204.5,0,0,0-21.36-2.09c-3.72-.09-4.34-1.89-5-4.66-4.73-21.3-9.81-42.52-14.16-63.89-2.59-12.67-4.91-25.51-5.78-38.39-.81-12,4.33-22.06,15.43-28.16-4.84-8.71-4.47-14.92,2-22.4q20.15-23.22,40.68-46.11a128.08,128.08,0,0,1,13.5-12.62c12-10,25.58-16.16,42.5-15-.78-2.63-1.36-4.75-2-6.85s-1.47-4.4-2.3-6.57c-1.27-3.3-2.28-6.76-4-9.81-2.27-4-3.19-7.82-1.78-12.36,4.38-14.21,12.33-24.78,27.85-27.48,9.46-1.65,19.08-4,28.52-3.62,6.49.29,13.07,4.34,19,7.72,2,1.13,2.34,5.35,3.22,8.22.79,2.57,1.17,5.27,1.91,7.86,1,3.67,2.08,7.35,3.42,10.92.86,2.27,2.31,4.3,3.37,6.51A5,5,0,0,1,1343,663C1340.48,676.88,1341.12,691.71,1331,703.52ZM1221.4,914.71c0-2.19,0-4,0-5.78-.48-14.15-.54-28.34-1.64-42.45-.94-12.17,1.19-25-7.1-36.41l6.59,3.34,1.55-1.09c1.07,11.9,2.22,23.8,3.21,35.7.67,8.21,2.29,9.93,10.64,10q23.74.27,47.5.33a59.4,59.4,0,0,0,29.26-7.26c1.34-.74,2.88-2.94,2.72-4.27-1.39-11.21,1.22-21.55,6.35-31.34,4.1-7.81,8.6-15.41,12.85-23.15,1.39-2.54,2.54-5.21,4.36-9l-29.79,7.84c-2.84,13.47-8.29,25-19.29,33.2-9.23,6.85-19.16,6.48-28.06-.62-1.38-1.1-2.72-2.24-4.33-3.57-1.07,3.61-1.72,6.9-3,9.9a47,47,0,0,1-5.12,9.09c-3.13,4.28-4.68,4.18-8.51.26-5.94,4.15-7,3.85-7.7-1.75l-5.45.67V850c-3.18-.68-3.08-3.3-2.07-6.36a118.77,118.77,0,0,0,4-12.88c.65-3.12,1.67-7.85.08-9.48-9.61-9.84-19.63-19.33-30.13-28.21-4-3.42-9.49-5.64-14.66-7.21-16-4.85-28.12,3.6-29.33,20.15a56.51,56.51,0,0,0,.52,13.94c1.81,10.15,4.13,20.21,6.4,30.27,4.46,19.81,9,39.61,13.67,59.37.39,1.64,2.18,4,3.57,4.17C1192.47,915.68,1206.58,916.72,1221.4,914.71Zm93.55.75c5.9-2.81,11.45-5.4,17-8.08,12-5.84,24.24-11.17,35.79-17.75A227.54,227.54,0,0,0,1397,869.74c9.74-7.79,11.56-17.51,7-28.76-4.41-10.8-13.16-18.09-20.18-25.52-6.43,3.3-11.89,6.48-17.66,9-4.87,2.1-10.22,3.11-15.1,5.19-1.63.7-3.54,3.29-3.47,4.93.22,5.05,1.34,10.07,2.1,15.05,5.79-.2,11-4.21,17.91-1.29-5.85,4.93-12.1,3-17.4,4.51-1.11,5.92,2.42,12.4-3.09,18.45l-4.54-8c-2.48,7.58.91,15.91-4,24.26l-4.45-8.26-3.48,9.4-5.18-3.18c-2.43,2.14-3,2.26-4.67-.61-1.91-3.21-3.37-6.69-5.07-10.15l-9.27,4.41C1307.56,892,1308.56,904.61,1315,915.46ZM1169.5,781.91c8.47-2.43,16.5-.65,23.63,3.61s13.77,9.85,20.65,14.8a60.2,60.2,0,0,0,8.19,5.47c10.6,5.25,13.89,13.76,9.61,24.81-2,5.06-3.43,10.31-5.12,15.47l1.14.57,5.68-9.68,1.6.63-5.94,16.75,1.47.73,10.38-15.35,1.36.76-6.86,18c7.68-5,8.07-13,11.39-19l1.79.76-4.53,17.53c6.89-7.2,9.73-15.64,9.9-25.32.25-13.63-3.56-25-15-33.45a80.57,80.57,0,0,1-14.2-13.85c-6.83-8.36-12.06-18.27-25.25-21.36,16.19-3.89,26.09-14.29,37-24a60.88,60.88,0,0,0-29.61-14.68,5.86,5.86,0,0,0-4.67,1.57q-15.63,17.54-30.89,35.38c-4.17,4.9-5.88,10.42-2.08,16.54C1169.58,779.32,1169.36,780.46,1169.5,781.91ZM1336,881.1l2.31-.22c.49-11.17-1.67-22.66,3.5-34.66,1.53,7.42,2.79,13.48,4,19.54l1.7-.26a60.52,60.52,0,0,0,0-6.32c-.81-7.62-1.23-15.33-2.8-22.79-1.15-5.48.86-8.44,5.36-10.16,5.42-2.07,11-3.71,16.58-5.41,5.86-1.79,11.35-4.11,14.58-9.72.77-1.33,1.62-3.27,1.21-4.53-5.76-17.94-11.68-35.86-23.41-51-1-1.28-3.68-2.1-5.38-1.84-9.68,1.48-16.72,7.5-23.64,14,3.55,5.88,6.6,11.64,10.34,16.92,4.48,6.31,4.72,12.63,1.34,19.25-4.69,9.19-9.91,18.13-14.2,27.49a134.74,134.74,0,0,0-8.73,23.74c-2,7.91.12,15.81,4.22,23.07.38-7.48.76-15,1.19-23.32,1.42,10.22,2.7,19.45,4,28.69l2.25-.18V853.09h1Q1333.71,867.11,1336,881.1Zm-9.72-173.38c-12.59,3.77-22,1.56-26.11-6.74,8.78,6.44,17.31,8.79,25.94,2.48,8.12-5.92,10.67-14.71,11.54-24.11l-8.94-1.25c-3,2.37-5.15,4.82-7.86,5.88-1,.41-3.66-2.12-4.91-3.8-.67-.9,0-2.82.1-4.28,1.48.45,1.73.83,2,1.22a33.42,33.42,0,0,0,2.77,4.76c.19.24,2.62-.51,2.84-1.18a12.64,12.64,0,0,0,.75-6c-.46-2.36-1.84-4.53-2.87-6.89l-4.92-.54c-.18,1.06-.33,1.87-.46,2.67-.89,5.34-3.86,8.75-9.27,9.78-5.12,1-10.19-1.69-13.22-6.18-1.89-2.79-4.47-5.11-7-7.93l-3.65,7.21-.85-1.47c-2.74.13-6.47-.78-7.95.65-1.88,1.81-2.66,5.56-2.5,8.4.11,2,2.74,5.41,4.07,5.32,4.39-.28,5.39,2.79,7.41,5.3a73.12,73.12,0,0,0,7.07,6.89c.94.89,2,1.7,3,2.55l-1,1.4c-2.22-1.47-4.48-2.89-6.65-4.44-1.46-1-2.63-2.91-4.21-3.3-4.78-1.18-9.69-1.83-14.79-2.72,0,4.61-.36,9.94.07,15.19.89,10.62,4.53,20.1,12.9,27.26,11.2,9.57,25.35,8.81,35.26-2C1320.82,725.15,1324.05,717,1326.26,707.72Zm-49.12,175.16c-2.24,0-4.39,0-6.54,0-9.37-.15-11.77,3.11-9.32,12.27q4.2,15.66,8.07,31.42c3.57,14.67,11.23,21.85,26.11,24.36a22.61,22.61,0,0,1,4.51,1.78l-.34,2.19c-2.41,0-4.89.39-7.21-.06-13.47-2.63-22.76-10.4-26.2-23.75-3.79-14.75-8.87-29.33-8.33-44.91-4.48.39-4.6.44-4.93,4.4-1.45,17.57,4,33.89,9.24,50.23a9.69,9.69,0,0,0,3.62,4.65c9.73,6.54,20,12,31.78,13.84,2.11.32,4.41-.62,7.41-1.11l-3.69-4.78c6.29-5.56,6.11-8.2-.8-12.94-3.12-2.13-6.43-4-10.13-6.27-1.52-5.18,3.34-11.45-.44-17.43l3.84-3.19L1290,912l5.68-6.54-1.1-1C1280.51,908.69,1272,902.45,1277.14,882.88Zm-52,49.91-.08,1.76c-3.62,0-7.25,0-10.87,0-8.56,0-8.56,0-9.83,3.51,7.34-.55,14.69-4.18,21.85.18a8.12,8.12,0,0,1-4.93,2c-4,.19-8,.06-12,.22-8.66.35-11.44,2.45-12.83,10.92-.6,3.67.14,7.58.56,11.36a3.4,3.4,0,0,0,2.18,2.15,66.34,66.34,0,0,0,41.76-1.15c-.31-1.44-.46-2.57-.8-3.65-2.3-7.47-5.08-14.81-6.86-22.4-2.79-11.9-10.86-13.08-19.36-12.89-4.77.11-8,1.85-7.61,7.5C1212.55,932.46,1219.05,930.31,1225.11,932.79Zm98.33-307.37.29-1.22c-4.9-1-9.86-3.13-14.67-2.81-8.56.57-17,2.65-25.53,4-14.65,2.41-21.62,12.54-25.67,25.54-1.23,3.93-.85,7.64,2.55,11,.66-3,1.2-5.41,1.75-7.84,1,8.53-.39,17.22,4.92,23.89l6.6-11.18h-7.2l-.19-1.83,9.2-2.13C1282.42,633.44,1289.88,625.52,1323.44,625.42Zm-11.08,31.79-.74-1.11c2.29-1.39,4.45-3.61,6.9-4,4.63-.69,7.1,2.76,8.81,6.69l10.23-.52c-1.59-5.19-3-9.9-4.46-14.63-1.32-4.44-4.55-5.77-8.79-5.53-5,.29-10,.22-14.92,1-4.5.71-10.07,1.07-13,3.87-4.7,4.54-7.67,10.9-11.19,16.61-.57.93-.2,2.45-.3,4.36,11.09-2.65,21.55-8.06,31.84-1.85l1.9-4.17a13.1,13.1,0,0,0,2.58,1.57,29,29,0,0,0,4.33.63C1321.8,652.62,1318.26,652.15,1312.36,657.21Zm-5.54,151c11.13-3.23,21.34-6.11,31.46-9.26,1.18-.37,2.73-2.29,2.66-3.41a20.32,20.32,0,0,0-1.9-8.06c-3.5-6.75-7.45-13.28-11.58-20.55C1319.83,780.53,1308.45,791.54,1306.82,808.18Zm-1.68,87.44c-.43-5.39-.83-10.39-1.23-15.32-6.36,1-11.89,2.14-17.49,2.55-3.39.24-5.28,1.54-6.19,4.59-1.29,4.33-1.68,8.61,1.92,12.11,2.41,2.35,4.8,2.18,7.2-.37.65-.69,2.21-.51,3.35-.77C1296.72,897.52,1300.74,896.61,1305.14,895.62Zm-112.25,68.46c.8,6.12,4.8,9.2,9.69,9.37,12.55.45,25.14.13,37.71-.31,1.45,0,2.82-2.73,4.23-4.19-2-.43-4.25-1.68-5.94-1.14a56.6,56.6,0,0,1-35.76.16C1199.59,966.92,1196.48,965.49,1192.89,964.08Zm33.72-42.59c-7.63-6.15-15.53-1.36-23.58-2.86l2.62,5.31.22-1.5Z" transform="translate(-1151.01 -618.95)"/><path class="cls-1" d="M1221.4,914.71c-14.82,2-28.93,1-43-1-1.39-.19-3.18-2.53-3.57-4.17-4.7-19.76-9.21-39.56-13.67-59.37-2.27-10.06-4.59-20.12-6.4-30.27a56.51,56.51,0,0,1-.52-13.94c1.21-16.55,13.36-25,29.33-20.15,5.17,1.57,10.61,3.79,14.66,7.21,10.5,8.88,20.52,18.37,30.13,28.21,1.59,1.63.57,6.36-.08,9.48a118.77,118.77,0,0,1-4,12.88c-1,3.06-1.11,5.68,2.07,6.36v8.43l5.45-.67c.73,5.6,1.76,5.9,7.7,1.75,3.83,3.92,5.38,4,8.51-.26a47,47,0,0,0,5.12-9.09c1.3-3,2-6.29,3-9.9,1.61,1.33,3,2.47,4.33,3.57,8.9,7.1,18.83,7.47,28.06.62,11-8.17,16.45-19.73,19.29-33.2l29.79-7.84c-1.82,3.77-3,6.44-4.36,9-4.25,7.74-8.75,15.34-12.85,23.15-5.13,9.79-7.74,20.13-6.35,31.34.16,1.33-1.38,3.53-2.72,4.27a59.4,59.4,0,0,1-29.26,7.26q-23.75,0-47.5-.33c-8.35-.09-10-1.81-10.64-10-1-11.9-2.14-23.8-3.21-35.7l-1.55,1.09-6.59-3.34c8.29,11.38,6.16,24.24,7.1,36.41,1.1,14.11,1.16,28.3,1.64,42.45C1221.45,910.72,1221.4,912.52,1221.4,914.71Zm59.17-53.83c3.51,7.61,10.32,11.13,15.73,7.76Z" transform="translate(-1151.01 -618.95)"/><path class="cls-1" d="M1315,915.46c-6.39-10.85-7.39-23.45-8.56-36.28l9.27-4.41c1.7,3.46,3.16,6.94,5.07,10.15,1.7,2.87,2.24,2.75,4.67.61l5.18,3.18,3.48-9.4,4.45,8.26c4.93-8.35,1.54-16.68,4-24.26l4.54,8c5.51-6,2-12.53,3.09-18.45,5.3-1.5,11.55.42,17.4-4.51-6.91-2.92-12.12,1.09-17.91,1.29-.76-5-1.88-10-2.1-15.05-.07-1.64,1.84-4.23,3.47-4.93,4.88-2.08,10.23-3.09,15.1-5.19,5.77-2.48,11.23-5.66,17.66-9,7,7.43,15.77,14.72,20.18,25.52,4.61,11.25,2.79,21-7,28.76a227.54,227.54,0,0,1-29.32,19.89c-11.55,6.58-23.81,11.91-35.79,17.75C1326.4,910.06,1320.85,912.65,1315,915.46Z" transform="translate(-1151.01 -618.95)"/><path class="cls-1" d="M1169.5,781.91c-.14-1.45.08-2.59-.37-3.31-3.8-6.12-2.09-11.64,2.08-16.54q15.22-17.88,30.89-35.38a5.86,5.86,0,0,1,4.67-1.57,60.88,60.88,0,0,1,29.61,14.68c-10.91,9.67-20.81,20.07-37,24,13.19,3.09,18.42,13,25.25,21.36a80.57,80.57,0,0,0,14.2,13.85c11.45,8.48,15.26,19.82,15,33.45-.17,9.68-3,18.12-9.9,25.32l4.53-17.53-1.79-.76c-3.32,6.07-3.71,14-11.39,19l6.86-18-1.36-.76-10.38,15.35-1.47-.73,5.94-16.75-1.6-.63-5.68,9.68-1.14-.57c1.69-5.16,3.15-10.41,5.12-15.47,4.28-11.05,1-19.56-9.61-24.81a60.2,60.2,0,0,1-8.19-5.47c-6.88-5-13.41-10.46-20.65-14.8S1178,779.48,1169.5,781.91Z" transform="translate(-1151.01 -618.95)"/><path class="cls-1" d="M1336,881.1q-2.26-14-4.54-28h-1v30.32l-2.25.18c-1.29-9.24-2.57-18.47-4-28.69-.43,8.36-.81,15.84-1.19,23.32-4.1-7.26-6.17-15.16-4.22-23.07a134.74,134.74,0,0,1,8.73-23.74c4.29-9.36,9.51-18.3,14.2-27.49,3.38-6.62,3.14-12.94-1.34-19.25-3.74-5.28-6.79-11-10.34-16.92,6.92-6.55,14-12.57,23.64-14,1.7-.26,4.39.56,5.38,1.84,11.73,15.17,17.65,33.09,23.41,51,.41,1.26-.44,3.2-1.21,4.53-3.23,5.61-8.72,7.93-14.58,9.72-5.56,1.7-11.16,3.34-16.58,5.41-4.5,1.72-6.51,4.68-5.36,10.16,1.57,7.46,2,15.17,2.8,22.79a60.52,60.52,0,0,1,0,6.32l-1.7.26c-1.25-6.06-2.51-12.12-4-19.54-5.17,12-3,23.49-3.5,34.66Z" transform="translate(-1151.01 -618.95)"/><path class="cls-1" d="M1326.26,707.72c-2.21,9.31-5.44,17.43-11.56,24.11-9.91,10.82-24.06,11.58-35.26,2-8.37-7.16-12-16.64-12.9-27.26-.43-5.25-.07-10.58-.07-15.19,5.1.89,10,1.54,14.79,2.72,1.58.39,2.75,2.26,4.21,3.3,2.17,1.55,4.43,3,6.65,4.44l1-1.4c-1-.85-2-1.66-3-2.55a73.12,73.12,0,0,1-7.07-6.89c-2-2.51-3-5.58-7.41-5.3-1.33.09-4-3.37-4.07-5.32-.16-2.84.62-6.59,2.5-8.4,1.48-1.43,5.21-.52,7.95-.65l.85,1.47,3.65-7.21c2.53,2.82,5.11,5.14,7,7.93,3,4.49,8.1,7.15,13.22,6.18,5.41-1,8.38-4.44,9.27-9.78.13-.8.28-1.61.46-2.67l4.92.54c1,2.36,2.41,4.53,2.87,6.89a12.64,12.64,0,0,1-.75,6c-.22.67-2.65,1.42-2.84,1.18a33.42,33.42,0,0,1-2.77-4.76c-.22-.39-.47-.77-2-1.22-.08,1.46-.77,3.38-.1,4.28,1.25,1.68,3.87,4.21,4.91,3.8,2.71-1.06,4.88-3.51,7.86-5.88l8.94,1.25c-.87,9.4-3.42,18.19-11.54,24.11-8.63,6.31-17.16,4-25.94-2.48C1304.24,709.28,1313.67,711.49,1326.26,707.72ZM1330,694.4a30.42,30.42,0,0,0,.94-5.88c0-.81-1.85-2.47-2.32-2.3-6.1,2.31-12.09,1.28-18.16,0-.69-.15-2.5,1.35-2.47,2a39.84,39.84,0,0,0,1.26,6.57c1.19-.58,3-.86,3.44-1.78,1.39-3,3.52-3.83,6.38-2.86C1322.56,691.34,1325.92,692.8,1330,694.4Zm-56.63-18.59,10.89,5.25C1282.18,676.11,1279.24,674.58,1273.39,675.81Z" transform="translate(-1151.01 -618.95)"/><path class="cls-1" d="M1277.14,882.88c-5.16,19.57,3.37,25.81,17.48,21.66l1.1,1L1290,912l3.75,1.55-3.84,3.19c3.78,6-1.08,12.25.44,17.43,3.7,2.27,7,4.14,10.13,6.27,6.91,4.74,7.09,7.38.8,12.94l3.69,4.78c-3,.49-5.3,1.43-7.41,1.11-11.77-1.83-22-7.3-31.78-13.84a9.69,9.69,0,0,1-3.62-4.65c-5.22-16.34-10.69-32.66-9.24-50.23.33-4,.45-4,4.93-4.4-.54,15.58,4.54,30.16,8.33,44.91,3.44,13.35,12.73,21.12,26.2,23.75,2.32.45,4.8.06,7.21.06l.34-2.19a22.61,22.61,0,0,0-4.51-1.78c-14.88-2.51-22.54-9.69-26.11-24.36q-3.84-15.77-8.07-31.42c-2.45-9.16,0-12.42,9.32-12.27C1272.75,882.91,1274.9,882.88,1277.14,882.88Z" transform="translate(-1151.01 -618.95)"/><path class="cls-1" d="M1225.11,932.79c-6.06-2.48-12.56-.33-18.8-.49-.36-5.65,2.84-7.39,7.61-7.5,8.5-.19,16.57,1,19.36,12.89,1.78,7.59,4.56,14.93,6.86,22.4.34,1.08.49,2.21.8,3.65a66.34,66.34,0,0,1-41.76,1.15,3.4,3.4,0,0,1-2.18-2.15c-.42-3.78-1.16-7.69-.56-11.36,1.39-8.47,4.17-10.57,12.83-10.92,4-.16,8,0,12-.22a8.12,8.12,0,0,0,4.93-2c-7.16-4.36-14.51-.73-21.85-.18,1.27-3.55,1.27-3.55,9.83-3.51,3.62,0,7.25,0,10.87,0Z" transform="translate(-1151.01 -618.95)"/><path class="cls-1" d="M1323.44,625.42c-33.56.1-41,8-48,37.46l-9.2,2.13.19,1.83h7.2l-6.6,11.18c-5.31-6.67-3.88-15.36-4.92-23.89-.55,2.43-1.09,4.86-1.75,7.84-3.4-3.36-3.78-7.07-2.55-11,4.05-13,11-23.13,25.67-25.54,8.51-1.39,17-3.47,25.53-4,4.81-.32,9.77,1.79,14.67,2.81Z" transform="translate(-1151.01 -618.95)"/><path class="cls-1" d="M1312.36,657.21c5.9-5.06,9.44-4.59,13.22,2.95a29,29,0,0,1-4.33-.63,13.1,13.1,0,0,1-2.58-1.57l-1.9,4.17c-10.29-6.21-20.75-.8-31.84,1.85.1-1.91-.27-3.43.3-4.36,3.52-5.71,6.49-12.07,11.19-16.61,2.9-2.8,8.47-3.16,13-3.87,4.9-.78,9.94-.71,14.92-1,4.24-.24,7.47,1.09,8.79,5.53,1.41,4.73,2.87,9.44,4.46,14.63l-10.23.52c-1.71-3.93-4.18-7.38-8.81-6.69-2.45.36-4.61,2.58-6.9,4Z" transform="translate(-1151.01 -618.95)"/><path class="cls-1" d="M1306.82,808.18c1.63-16.64,13-27.65,20.64-41.28,4.13,7.27,8.08,13.8,11.58,20.55a20.32,20.32,0,0,1,1.9,8.06c.07,1.12-1.48,3-2.66,3.41C1328.16,802.07,1318,805,1306.82,808.18Z" transform="translate(-1151.01 -618.95)"/><path class="cls-1" d="M1305.14,895.62c-4.4,1-8.42,1.9-12.44,2.79-1.14.26-2.7.08-3.35.77-2.4,2.55-4.79,2.72-7.2.37-3.6-3.5-3.21-7.78-1.92-12.11.91-3.05,2.8-4.35,6.19-4.59,5.6-.41,11.13-1.58,17.49-2.55C1304.31,885.23,1304.71,890.23,1305.14,895.62Z" transform="translate(-1151.01 -618.95)"/><path class="cls-1" d="M1192.89,964.08c3.59,1.41,6.7,2.84,9.93,3.89a56.6,56.6,0,0,0,35.76-.16c1.69-.54,4,.71,5.94,1.14-1.41,1.46-2.78,4.14-4.23,4.19-12.57.44-25.16.76-37.71.31C1197.69,973.28,1193.69,970.2,1192.89,964.08Z" transform="translate(-1151.01 -618.95)"/><path class="cls-1" d="M1226.61,921.49l-20.74,1-.22,1.5-2.62-5.31C1211.08,920.13,1219,915.34,1226.61,921.49Z" transform="translate(-1151.01 -618.95)"/><path d="M1280.57,860.88l15.73,7.76C1290.89,872,1284.08,868.49,1280.57,860.88Z" transform="translate(-1151.01 -618.95)"/><path d="M1330,694.4c-4.1-1.6-7.46-3.06-10.93-4.23-2.86-1-5-.15-6.38,2.86-.42.92-2.25,1.2-3.44,1.78a39.84,39.84,0,0,1-1.26-6.57c0-.69,1.78-2.19,2.47-2,6.07,1.3,12.06,2.33,18.16,0,.47-.17,2.32,1.49,2.32,2.3A30.42,30.42,0,0,1,1330,694.4Z" transform="translate(-1151.01 -618.95)"/><path d="M1273.39,675.81c5.85-1.23,8.79.3,10.89,5.25Z" transform="translate(-1151.01 -618.95)"/></svg>