<svg id="Layer_1" data-name="Layer 1" xmlns="http://www.w3.org/2000/svg" viewBox="0 0 300.79 336.86"><defs><style>.cls-1{fill:#fff;}</style></defs><path d="M1226.63,773.35c-11.78,5-21.81,9.92-32.28,13.55-20.48,7.11-33.77,20.67-39.8,41.44-6.25,21.55-12.51,43.09-18.87,65,16.5,3.53,32.48,4.35,46.88,11.88,1.13-11.39,2.62-23.17,3.26-35,.19-3.53-2-7.18-3.51-12.1L1187,863l2.13-3.58c3.47,14.93,1.15,29.58-1,44.84,1.8-.36,3.34-.59,4.84-1,13.36-3.56,26.73-7,40-10.8,2.92-.83,5.53-2.71,8.33-4,1.32-.61,3-1.73,4.09-1.34,6,2.25,11-1.07,16.25-2.63,7.79-2.34,15.28-5.7,23-8.33,8.79-3,15.16-.11,19.09,9.54a41,41,0,0,1-4.72-4c-3.56-3.95-7.3-5.57-12.74-3.36-5.84,2.37-12.08,3.72-18.09,5.7-8,2.61-15.89,5.3-23.73,8.22a5.33,5.33,0,0,0-2.66,3.52,16.82,16.82,0,0,0,.31,5.94c2.24,12.9,4.29,13.7,15.92,8.26a92.58,92.58,0,0,1,19.88-6.72c3-.63,6.59,1.54,9.87,2.56,1.43.44,2.71,1.4,4.14,1.7,1,.22,2.94-.08,3-.5.27-1.09.15-3.14-.5-3.46a125,125,0,0,0-12.08-5.32c-1.59-.61-3.42-.58-5-1.4,9.55-3.43,16.33,5.57,25.56,5.7.38-1.33.76-2.65.75-2.6-6.77-7.45-14.62-8.22-23.13-5.85,8.46-4.34,16.4-4.51,23.15,3.19,4.12-15.62,7.9-30.24,11.84-44.83,1.44-5.3,3.51-10.43,4.8-15.76,1.78-7.33,6.38-11,13.64-11.81,2-.23,3.88-.75,5.37-1.05-3.11-21.48-16.62-33.89-35.95-41.28,15.29.59,30.35,11.57,35.48,24.78,2,5.22,3.15,12.45,7.06,14.8,3.67,2.2,10.47-1,15.92-1.52,21.55-2,43.12-3.9,64.68-5.8,1.63-.14,3.28,0,5.35,0a30.83,30.83,0,0,1,0,4.54c-4.33,26.46-8.64,52.93-13.11,79.37-1.69,10-5.21,13.09-15.6,14.27-17.37,2-34.73,3.93-52.77,6,2.22,19.91.53,37.64-24.24,41.31l-.43,5.82-1.57.57c-.76-1.67-2.05-3.31-2.18-5-1-12.73-1.78-25.48-2.66-38.73-4.6.28-10.59,1.36-16.43.81a126.78,126.78,0,0,1-21.77-4.27c-5.09-1.4-9.93-3.84-14.74-6.13a9.54,9.54,0,0,0-10.22.64c-3.56,2.28-7.46,4-11.24,6-22.25,11.36-44.52,22.67-66.7,34.13-1.11.57-1.76,2.37-2.23,3.73a36,36,0,0,0-1,5.11l-1.78-.1c-.18-2.12-.37-4.23-.59-6.79-3,.35-6,.78-9.06,1-7.63.66-13.56-2.4-18.26-8.3a38.68,38.68,0,0,1-8.32-23.61c-.21-7.16,0-14.32,0-21.88-6.32-.78-6.32-4.36-5.2-9.87a485.51,485.51,0,0,1,20.93-73.91c6-16.1,17.16-27.09,33-33.45,11.73-4.72,23.5-9.34,35.26-14,.75-.31,1.47-.72,1.66-.81-.65-10.3,9-13.49,13.26-19.81-3.12-3.73-5.4-6-10.87-5.27-10.18,1.4-18.9-6.54-21-16.56-.72-3.52-2.91-6.73-3.71-10.24-2.18-9.62-4.93-18.8-10.59-27.23-2-3-1.48-8.57-.35-12.44a114.12,114.12,0,0,1,8.11-19.28,39.79,39.79,0,0,1,23.07-20.22c15.48-5.46,31.22-9.41,47.68-10.27,14.25-.75,26.31,4.79,37.54,12.78,5.42,3.85,3.22,9.91,4.09,15.06.24,1.38-.45,3.16.19,4.21,8,13.15,9.83,27.89,10.38,42.74.43,11.45.59,23.09-.93,34.4-2,14.66-10,25.91-24.35,32.67,4.37,2.35,7.91,5.22,6.85,10.46a18.71,18.71,0,0,1-2.94,7.45c-4,5.18-8.18,10.08-6.36,17.61l-1.35.44-7-4.84c-2,1-4.63,1.58-5.9,3.22-1.43,1.87-3.56,4.06-.89,7.34,3.12,3.81,4.8,8.54,1.79,13.92a12.71,12.71,0,0,1-1.27-3.2,19.61,19.61,0,0,0-7.92-14c-5.66-4.27-7.23-9.18-4.52-15.68a6.3,6.3,0,0,0-.34-4.79c-4.53,6.08-9.3,12-13.49,18.3-2.23,3.36-4,2.6-5.63.16-2.11-3.16-3.67-6.69-5.54-10C1235.86,789.67,1231,781.17,1226.63,773.35Zm-16.07-47c-1.38,4.18,0,7.53,3.29,10.11,4,3.12,9.47,4.18,12.86,2.25-8.7-.31-14.27-4.08-16.18-12.33V712.82c13.34,4.2,25.7,7.71,38.68,8l-37.63-10.14,9.21-5.33a105.2,105.2,0,0,1,11.74-40.06,38.56,38.56,0,0,1,23-19.47c13.48-4.43,27.21-6.17,41.55-3.94-6.63-4.72-15.46-7.46-24.51-7.65-16.26-.35-31.56,4.35-47,8.71a38.51,38.51,0,0,0-25.21,21.14c-2.4,4.93-4.65,10-6.57,15.11-2.6,7-.84,14.2,3.92,17.82l3-13.77a63.21,63.21,0,0,1,.79,14A43.87,43.87,0,0,0,1210.56,726.38Zm90.75,193.26a20.24,20.24,0,0,0,2.7.28q49.82-5.85,99.64-11.71c7.48-.87,9.84-2.78,11.28-10.26,1.7-8.82,3.13-17.69,4.67-26.54,3.07-17.67,6.13-35.34,9.27-53.42-1.94,0-3.58,0-5.21,0-30.5,1-60.68,4.89-90.68,10.35-5.06.92-7.82,3.56-9.15,8.49C1316.45,864.29,1308.93,891.69,1301.31,919.64ZM1137.63,901.3l1.45-.31c0,7.81-.27,15.64.08,23.43.39,8.84,3.07,17,9,23.8,4.29,4.92,9.69,7.55,16,6,7.36-1.78,14.83-3.87,21.6-7.17,18.23-8.89,36.11-18.5,54.12-27.84,1.3-.67,2.54-1.45,3.81-2.17l-1.55.08c-1.84-7.52-3.68-15-5.56-22.71l-73.9,19.12-.26-.65,13.07-5,.18-1.32c-13.14-3.15-26.26-6.34-39.42-9.36-1-.22-2.19.8-3.29,1.24v1.16Zm179-183.64c-.11-17.54-1-34.16-7.86-50-2.46-5.72-6.55-7.64-12.06-7.38-10.31.5-20.63,1.07-30.91,2-9.06.85-16.14,4.72-19.36,14.05a15.86,15.86,0,0,1-4.74,6.85c-6,4.88-7.46,11.18-6.69,18.33.48,4.51,1.7,9.09-4.62,12,17.61,5.34,33.81,8.6,50.6,2.13C1292.72,711.13,1304.45,711.71,1316.67,717.66Zm-11.89,12.92.5-1.46c2,.66,3.92,1.44,5.93,1.94,2.17.54,4.41.82,6.64,1.22.88-10.34-.59-12.49-9.61-15.36-8.46-2.69-16.77-1.75-25.08.54-10.09,2.77-20.14,5.9-31.3,3.44,1.3,13.13-3.92,23.31-12.73,31.87,7,7.3,14.77,11.69,23.82,13.19,5.91,1,11.87,1.66,17.83,2.24,18,1.72,36.7-15.57,36.8-33.11Zm-72.66,26.5c-2,3-3.17,5.24-4.71,7.14-3,3.73-1.69,6.25,1,9.78,5.45,7,10,14.77,14.82,22.33,1.91,3,3.34,6.32,5.12,9.75l17-20C1253.49,777.71,1240.27,771.05,1232.12,757.08Zm10.46,6.57-1,1.51,3.9,2.7q8.58,6,17.16,12c6.89,4.81,8.25,8.53,6,16.61-1.77,6.5-1.14,7.95,3.87,10.78,3.08-3.82,6-7.54,9-11.12,7.77-9.16,10.53-13.1,5.57-22.36C1271.82,772.7,1256.31,772.32,1242.58,763.65Zm80.08,158.62c.57,10.28,1,20.19,1.84,30.07.09,1,2.93,2.92,4,2.64,6.75-1.71,12.62-5.74,14.88-12.13,2.55-7.23,3.08-15.16,4.6-23.36Zm-84.82-173c8.37-7.62,12.83-17.77,11.54-25.2l-16.57-3,2,5.73-20.09-10.38a46.94,46.94,0,0,0-.66,5.64c0,8.16,3.49,11.53,11.55,12,1.23.07,2.67,1.48,3.52,2.63C1232.09,740.62,1234.8,744.77,1237.84,749.22Zm28.24,161.22c12.33,2.73,22.51,9.67,35,9.36.66-5,1.28-9.75,1.91-14.55l-5-1.71c-.38,6.68-2.47,8-8.5,5.57-2-.81-3.81-2.21-5.85-2.69a15.75,15.75,0,0,0-7.14-.33C1273.18,906.94,1270.14,908.68,1266.08,910.44Zm17.77-111.1,4.48,1.91a66.49,66.49,0,0,1,3.38-7.29c1.46-2.37,3.79-4.26,5-6.72,3.82-7.72,2.22-11.49-4.9-13.8C1295.92,784.3,1288.52,791.36,1283.85,799.34Z" transform="translate(-1131.18 -629.87)"/><path d="M1200.34,852.16,1193,806.9l1.39-.24c5,14.65,8.31,29.58,7.93,45.15Z" transform="translate(-1131.18 -629.87)"/><path d="M1258.87,921c-4.26,11.4-10,21.94-19,30.46C1243.72,939.82,1251.46,930.53,1258.87,921Z" transform="translate(-1131.18 -629.87)"/><path d="M1212.33,813c4.34,6.28,5.33,22.59,0,28.13Z" transform="translate(-1131.18 -629.87)"/><path d="M1272.71,887.6c12.54-7.39,26.54-6.1,31.6,1.86-4.64-1.33-9.61-3.64-14.72-4S1279,886.73,1272.71,887.6Z" transform="translate(-1131.18 -629.87)"/><path d="M1259.6,804.92l11.74,9.32C1265.3,813.18,1260.18,811.17,1259.6,804.92Z" transform="translate(-1131.18 -629.87)"/><path class="cls-1" d="M1301.31,919.64c7.62-27.95,15.14-55.35,22.52-82.8,1.33-4.93,4.09-7.57,9.15-8.49,30-5.46,60.18-9.31,90.68-10.35,1.63-.06,3.27,0,5.21,0-3.14,18.08-6.2,35.75-9.27,53.42-1.54,8.85-3,17.72-4.67,26.54-1.44,7.48-3.8,9.39-11.28,10.26Q1353.82,914,1304,919.92A20.24,20.24,0,0,1,1301.31,919.64ZM1377.72,854c-3.46,5.55-6.08,10.6-9.54,15-2.55,3.24-2.19,5.31.83,7.39,4.31,3,15,2.17,19-1.31,3-2.66,2.83-5.14,0-8a95.34,95.34,0,0,1-6.93-8.52C1379.88,857,1378.7,855.34,1377.72,854Z" transform="translate(-1131.18 -629.87)"/><path class="cls-1" d="M1137.63,901.3l-4.66-1.66v-1.16c1.1-.44,2.34-1.46,3.29-1.24,13.16,3,26.28,6.21,39.42,9.36l-.18,1.32-13.07,5,.26.65,73.9-19.12c1.88,7.66,3.72,15.19,5.56,22.71l1.55-.08c-1.27.72-2.51,1.5-3.81,2.17-18,9.34-35.89,19-54.12,27.84-6.77,3.3-14.24,5.39-21.6,7.17-6.29,1.52-11.69-1.11-16-6-6-6.84-8.65-15-9-23.8-.35-7.79-.08-15.62-.08-23.43Z" transform="translate(-1131.18 -629.87)"/><path class="cls-1" d="M1316.67,717.66c-12.22-5.95-24-6.53-35.64-2-16.79,6.47-33,3.21-50.6-2.13,6.32-2.9,5.1-7.48,4.62-12-.77-7.15.7-13.45,6.69-18.33a15.86,15.86,0,0,0,4.74-6.85c3.22-9.33,10.3-13.2,19.36-14.05,10.28-.95,20.6-1.52,30.91-2,5.51-.26,9.6,1.66,12.06,7.38C1315.64,683.5,1316.56,700.12,1316.67,717.66ZM1257.42,698c6.67-.74,13.35-1.39,20-2.32.91-.13,1.62-1.67,2.43-2.56-.83-.69-1.65-2-2.48-2C1270,691.07,1263.15,692.82,1257.42,698Zm4.66,6.49c-.91,5.14,1.59,9.26,5.51,10.43,3.71,1.11,7.08-.83,8.67-5.41.43-1.25-.2-2.87-.34-4.33-1.2.75-2.89,1.22-3.52,2.3-2.43,4.2-4.62,4.59-7.69.91C1263.89,707.43,1263.26,706.29,1262.08,704.51Zm48.92-7.65c-2.1-5.42-10-9-14.76-6.81a4.41,4.41,0,0,0-2.08,2.88c-.09.54,1.4,1.86,2.31,2C1301.14,695.71,1305.86,696.21,1311,696.86Zm-13.53,6.47c-1.32,5.3,1.48,7.52,4.59,7.32,2.32-.15,4.52-2.95,6.62-4.74.2-.17-.5-1.79-1.12-2.35a2.22,2.22,0,0,0-2.06.52C1303.05,709.21,1300.46,706.53,1297.47,703.33Z" transform="translate(-1131.18 -629.87)"/><path class="cls-1" d="M1304.78,730.58l12.8,4.51c-.1,17.54-18.79,34.83-36.8,33.11-6-.58-11.92-1.27-17.83-2.24-9-1.5-16.79-5.89-23.82-13.19,8.81-8.56,14-18.74,12.73-31.87,11.16,2.46,21.21-.67,31.3-3.44,8.31-2.29,16.62-3.23,25.08-.54,9,2.87,10.49,5,9.61,15.36-2.23-.4-4.47-.68-6.64-1.22-2-.5-4-1.28-5.93-1.94Zm-41.72,5.33c6.68.52,12.85.93,17.55-4l-.35-1.42Z" transform="translate(-1131.18 -629.87)"/><path class="cls-1" d="M1210.6,726.33a43.48,43.48,0,0,1-9.1-29.13,63.21,63.21,0,0,0-.79-14q-1.49,6.88-3,13.77c-4.75-3.62-6.51-10.84-3.91-17.82,1.92-5.14,4.17-10.18,6.57-15.11a38.51,38.51,0,0,1,25.21-21.14c15.4-4.36,30.7-9.06,47-8.71,9.05.19,17.88,2.93,24.51,7.65-14.34-2.23-28.07-.49-41.55,3.94a38.56,38.56,0,0,0-23,19.47,105.2,105.2,0,0,0-11.74,40.06l-9.21,5.33,37.63,10.14c-13-.28-25.34-3.79-38.68-8v13.59Zm-3.13-52.48c3.51,2.34,5.85,4,8.34,5.47.63.37,1.72,0,2.6-.08-.07-.9.21-2.1-.26-2.64C1215.77,673.9,1212.89,672.36,1207.47,673.85Zm19.93-5.37,1.06-2.32-11.5-5-.61,1.31C1219.87,664.8,1222.55,668.79,1227.4,668.48ZM1225.69,651l-.61,1.72,9.68,4.68,1-2.36Z" transform="translate(-1131.18 -629.87)"/><path class="cls-1" d="M1232.12,757.08c8.15,14,21.37,20.63,33.24,29l-17,20c-1.78-3.43-3.21-6.74-5.12-9.75-4.77-7.56-9.37-15.28-14.82-22.33-2.73-3.53-4-6-1-9.78C1229,762.32,1230.13,760.13,1232.12,757.08Z" transform="translate(-1131.18 -629.87)"/><path class="cls-1" d="M1242.58,763.65c13.73,8.67,29.24,9.05,44.52,10.11,5,9.26,2.2,13.2-5.57,22.36-3,3.58-5.9,7.3-9,11.12-5-2.83-5.64-4.28-3.87-10.78,2.2-8.08.84-11.8-6-16.61q-8.6-6-17.16-12l-3.9-2.7Z" transform="translate(-1131.18 -629.87)"/><path class="cls-1" d="M1322.66,922.27l25.37-2.78c-1.52,8.2-2,16.13-4.6,23.36-2.26,6.39-8.13,10.42-14.88,12.13-1.12.28-4-1.6-4-2.64C1323.65,942.46,1323.23,932.55,1322.66,922.27Z" transform="translate(-1131.18 -629.87)"/><path class="cls-1" d="M1237.84,749.22c-3-4.45-5.75-8.6-8.69-12.58-.85-1.15-2.29-2.56-3.52-2.63-8.06-.43-11.51-3.8-11.55-12a46.94,46.94,0,0,1,.66-5.64l20.09,10.38-2-5.73,16.57,3C1250.67,731.45,1246.21,741.6,1237.84,749.22Z" transform="translate(-1131.18 -629.87)"/><path class="cls-1" d="M1266.08,910.44c4.06-1.76,7.1-3.5,10.36-4.35a15.75,15.75,0,0,1,7.14.33c2,.48,3.86,1.88,5.85,2.69,6,2.44,8.12,1.11,8.5-5.57l5,1.71c-.63,4.8-1.25,9.51-1.91,14.55C1288.59,920.11,1278.41,913.17,1266.08,910.44Z" transform="translate(-1131.18 -629.87)"/><path class="cls-1" d="M1283.85,799.34c4.67-8,12.07-15,8-25.9,7.12,2.31,8.72,6.08,4.9,13.8-1.22,2.46-3.55,4.35-5,6.72a66.49,66.49,0,0,0-3.38,7.29Z" transform="translate(-1131.18 -629.87)"/><path class="cls-1" d="M1210.53,726.41c1.91,8.25,7.48,12,16.18,12.33-3.39,1.93-8.86.87-12.86-2.25-3.3-2.58-4.67-5.93-3.27-10.13Z" transform="translate(-1131.18 -629.87)"/><path d="M1377.72,854c1,1.33,2.16,3,3.42,4.6a95.34,95.34,0,0,0,6.93,8.52c2.78,2.81,3,5.29,0,8-4,3.48-14.7,4.28-19,1.31-3-2.08-3.38-4.15-.83-7.39C1371.64,864.61,1374.26,859.56,1377.72,854Zm4,16.93c.42-2.19.79-4.18,1.17-6.16-4.12.66-3.3-3.23-5-6.29-.3,4.54-7.17,4.24-5.08,9.09a38.59,38.59,0,0,0-4.11,4.74c-.2.3,1.28,2.31,2.29,2.66,5.2,1.8,10.44,1.79,15.2-1.32.92-.61,1.08-2.39,1.6-3.63-1.25.06-2.52,0-3.75.22A12.47,12.47,0,0,0,1381.77,870.94Z" transform="translate(-1131.18 -629.87)"/><path d="M1257.42,698c5.73-5.2,12.57-6.95,19.94-6.87.83,0,1.65,1.3,2.48,2-.81.89-1.52,2.43-2.43,2.56C1270.77,696.63,1264.09,697.28,1257.42,698Z" transform="translate(-1131.18 -629.87)"/><path d="M1262.08,704.51c1.18,1.78,1.81,2.92,2.63,3.9,3.07,3.68,5.26,3.29,7.69-.91.63-1.08,2.32-1.55,3.52-2.3.14,1.46.77,3.08.34,4.33-1.59,4.58-5,6.52-8.67,5.41C1263.67,713.77,1261.17,709.65,1262.08,704.51Z" transform="translate(-1131.18 -629.87)"/><path d="M1311,696.86c-5.14-.65-9.86-1.15-14.53-1.92-.91-.15-2.4-1.47-2.31-2a4.41,4.41,0,0,1,2.08-2.88C1301,687.82,1308.9,691.44,1311,696.86Z" transform="translate(-1131.18 -629.87)"/><path d="M1297.47,703.33c3,3.2,5.58,5.88,8,.75a2.22,2.22,0,0,1,2.06-.52c.62.56,1.32,2.18,1.12,2.35-2.1,1.79-4.3,4.59-6.62,4.74C1299,710.85,1296.15,708.63,1297.47,703.33Z" transform="translate(-1131.18 -629.87)"/><path d="M1263.06,735.91l17.2-5.39.35,1.42C1275.91,736.84,1269.74,736.43,1263.06,735.91Z" transform="translate(-1131.18 -629.87)"/><path d="M1207.47,673.85c5.42-1.49,8.3,0,10.68,2.75.47.54.19,1.74.26,2.64-.88,0-2,.45-2.6.08C1213.32,677.88,1211,676.19,1207.47,673.85Z" transform="translate(-1131.18 -629.87)"/><path d="M1227.4,668.48c-4.85.31-7.53-3.68-11.05-6l.61-1.31,11.5,5Z" transform="translate(-1131.18 -629.87)"/><path d="M1225.69,651l10.06,4-1,2.36-9.68-4.68Z" transform="translate(-1131.18 -629.87)"/><path class="cls-1" d="M1381.77,870.94a12.47,12.47,0,0,1,2.28-.69c1.23-.18,2.5-.16,3.75-.22-.52,1.24-.68,3-1.6,3.63-4.76,3.11-10,3.12-15.2,1.32-1-.35-2.49-2.36-2.29-2.66a38.59,38.59,0,0,1,4.11-4.74c-2.09-4.85,4.78-4.55,5.08-9.09,1.74,3.06.92,7,5,6.29C1382.56,866.76,1382.19,868.75,1381.77,870.94Z" transform="translate(-1131.18 -629.87)"/></svg>